<?xml version="1.0" standalone="no"?>
<!DOCTYPE svg PUBLIC "-//W3C//DTD SVG 20010904//EN"
 "http://www.w3.org/TR/2001/REC-SVG-20010904/DTD/svg10.dtd">
<svg version="1.0" xmlns="http://www.w3.org/2000/svg"
 width="395.000000pt" height="395.000000pt" viewBox="0 0 395.000000 395.000000"
 preserveAspectRatio="xMidYMid meet">

<g transform="translate(0.000000,395.000000) scale(0.100000,-0.100000)"
fill="#000000" stroke="none">
<path d="M2019 3468 c-62 -106 -194 -332 -294 -503 -100 -170 -242 -413 -315
-538 -107 -183 -136 -226 -145 -215 -7 7 -88 144 -180 303 -92 160 -169 293
-172 298 -2 4 44 7 104 7 l108 0 70 -125 c38 -69 72 -125 75 -125 3 0 12 12
21 28 9 15 97 166 197 335 100 170 182 311 182 313 0 2 -336 4 -746 4 -669 0
-746 -2 -740 -15 5 -13 299 -524 869 -1510 61 -104 133 -229 161 -277 28 -49
53 -88 57 -88 4 0 134 219 290 488 155 268 401 691 546 941 145 249 263 458
263 463 0 6 -42 85 -94 177 -131 231 -130 231 -137 231 -4 0 -58 -87 -120
-192z"/>
<path d="M2303 2754 l-283 -485 170 -298 c93 -164 172 -306 176 -314 6 -17
-371 -677 -386 -677 -5 0 -31 36 -59 80 l-51 79 146 261 146 260 -118 210
c-90 159 -121 207 -130 197 -13 -14 -521 -877 -529 -898 -3 -8 67 -138 155
-289 88 -151 222 -382 298 -512 75 -131 139 -238 142 -238 3 0 33 49 67 108
33 59 228 397 433 750 204 354 374 650 376 657 3 8 -73 148 -169 313 l-174
299 157 279 157 279 112 3 c108 3 112 2 102 -17 -6 -10 -78 -132 -161 -271
-83 -139 -150 -255 -148 -259 2 -4 57 -101 122 -215 117 -205 120 -209 135
-186 30 43 791 1355 791 1363 0 4 -269 7 -597 7 l-598 0 -282 -486z"/>
</g>
</svg>
